<?xml version="1.0" standalone="no"?>
<!DOCTYPE svg PUBLIC "-//W3C//DTD SVG 20010904//EN"
 "http://www.w3.org/TR/2001/REC-SVG-20010904/DTD/svg10.dtd">
<svg version="1.0" xmlns="http://www.w3.org/2000/svg"
 width="1871.000000pt" height="2495.000000pt" viewBox="0 0 1871.000000 2495.000000"
 preserveAspectRatio="xMidYMid meet">

<g transform="translate(0.000000,2495.000000) scale(0.100000,-0.100000)"
fill="#000000" stroke="none">
<path d="M9990 21502 c-25 -16 -65 -46 -90 -67 -80 -67 -84 -68 -410 -76 -324
-7 -270 0 -880 -120 -331 -65 -648 -152 -874 -240 -78 -30 -118 -53 -178 -102
-104 -85 -181 -129 -538 -309 -168 -84 -361 -186 -430 -224 -69 -39 -172 -97
-230 -129 -120 -66 -409 -254 -550 -358 -176 -130 -254 -198 -535 -462 -392
-368 -558 -540 -928 -959 -180 -203 -194 -227 -384 -679 -111 -265 -129 -303
-289 -617 -55 -107 -115 -238 -133 -290 -61 -178 -122 -375 -187 -600 -122
-423 -135 -489 -159 -790 -9 -113 -34 -367 -55 -565 -70 -641 -68 -600 -31
-815 53 -298 60 -356 71 -535 12 -190 8 -215 -40 -272 -36 -43 -208 -401 -245
-508 -13 -38 -33 -97 -46 -130 -20 -57 -22 -79 -25 -385 -2 -228 -10 -395 -25
-560 -26 -290 -23 -415 21 -684 49 -307 90 -426 146 -426 41 0 50 36 31 127
-9 43 -18 106 -22 140 -3 34 -17 117 -31 185 -15 77 -27 176 -31 263 -5 125
-3 155 22 285 27 143 27 147 15 315 -18 260 -26 520 -19 606 5 51 16 97 33
136 38 81 148 244 193 283 85 75 205 104 337 81 127 -22 169 -45 275 -147 54
-52 124 -125 156 -163 83 -100 274 -250 338 -266 38 -10 84 20 121 78 55 88
142 256 236 458 49 106 105 217 122 247 50 84 187 215 265 253 l65 32 212 6
c226 6 250 12 244 55 -2 12 -21 29 -50 44 -91 47 -250 40 -419 -18 -111 -38
-129 -39 -129 -2 0 40 53 144 94 185 49 49 89 68 236 111 188 55 220 56 322
13 45 -19 110 -43 143 -52 124 -35 184 -84 230 -190 26 -58 31 -259 11 -482
-15 -174 -15 -188 4 -345 25 -202 42 -282 92 -427 80 -233 188 -420 313 -546
125 -124 275 -211 552 -319 398 -155 609 -189 1198 -190 284 -1 356 2 440 17
126 22 237 51 340 87 216 75 291 125 470 314 77 81 189 189 249 239 152 128
268 272 246 306 -6 11 -17 12 -54 2 -26 -6 -52 -9 -58 -5 -17 11 0 63 61 184
33 64 66 139 74 167 18 61 35 218 46 436 9 176 16 196 82 229 65 34 438 22
702 -22 213 -35 247 -65 247 -211 0 -122 -52 -320 -90 -344 -14 -9 -47 69 -55
130 -14 112 -15 117 -30 105 -8 -6 -22 -35 -32 -63 -14 -42 -18 -81 -17 -202
1 -133 4 -160 28 -238 49 -165 173 -401 297 -567 35 -47 102 -152 151 -233
122 -206 177 -283 261 -364 165 -159 353 -254 649 -329 310 -78 612 -111 913
-100 487 17 704 76 990 267 204 136 377 327 494 544 126 234 185 402 251 722
23 107 53 223 67 258 31 75 132 229 154 233 20 4 25 -16 84 -280 68 -311 159
-600 237 -751 11 -23 32 -73 46 -112 22 -64 25 -89 29 -275 5 -196 -4 -290
-26 -290 -15 0 -71 226 -101 408 -20 125 -32 94 -50 -129 -5 -70 -13 -221 -16
-335 -7 -208 -7 -209 19 -269 13 -33 28 -76 32 -95 4 -19 18 -56 31 -82 14
-27 27 -75 31 -109 5 -51 8 -58 19 -47 25 24 86 188 104 280 30 143 100 753
100 864 0 87 27 250 77 464 77 330 72 422 -33 596 -63 106 -80 175 -69 294 8
93 30 144 99 229 96 119 164 233 216 363 38 96 45 131 64 343 9 94 24 229 32
300 14 110 16 213 11 680 -10 984 -42 1239 -220 1740 -120 337 -165 519 -248
1000 -59 348 -83 423 -203 664 -71 141 -149 243 -290 378 -242 233 -386 341
-591 445 -77 39 -177 95 -221 124 -133 88 -310 276 -404 429 -67 109 -62 106
-390 263 -80 39 -208 111 -285 162 -77 50 -203 123 -280 162 -149 75 -249 138
-355 223 -36 29 -120 89 -187 133 -66 45 -165 116 -220 160 -183 147 -202 157
-438 237 -99 34 -229 81 -288 104 -113 44 -265 87 -502 141 -131 30 -313 86
-520 161 -66 23 -113 33 -175 36 -81 5 -87 3 -130 -25z m1220 -2402 c98 -34
138 -36 275 -13 55 9 112 14 126 10 14 -4 59 -37 100 -73 41 -37 88 -73 106
-80 40 -17 95 -7 233 43 101 37 133 39 222 13 45 -13 51 -12 113 13 36 15 75
27 87 27 46 0 114 -47 219 -150 85 -84 127 -117 190 -150 115 -60 343 -254
493 -418 101 -112 545 -644 619 -743 126 -168 256 -420 361 -700 118 -317 146
-375 281 -574 107 -158 150 -273 177 -477 14 -110 3 -131 -36 -69 -87 137 -78
127 -87 103 -18 -49 40 -420 97 -620 13 -48 58 -154 99 -237 60 -122 77 -167
91 -240 31 -175 55 -251 118 -385 122 -259 115 -290 -19 -83 -41 62 -92 132
-115 156 -39 43 -94 76 -106 64 -3 -3 8 -50 25 -105 28 -89 47 -166 111 -441
25 -106 47 -151 110 -224 49 -58 62 -87 38 -87 -7 0 -85 11 -173 24 -185 28
-364 69 -520 120 -448 144 -1164 250 -1695 250 -185 0 -291 -5 -385 -17 -306
-41 -479 -78 -666 -143 -178 -61 -269 -117 -493 -299 -128 -104 -149 -109
-378 -81 -296 37 -415 48 -625 56 -162 6 -229 13 -250 24 -45 23 -103 91 -195
232 -47 71 -103 149 -125 174 -56 64 -93 121 -93 144 0 11 12 30 28 42 26 22
26 24 12 50 -26 47 -380 242 -585 323 -186 73 -348 130 -405 142 -107 23 -455
-7 -704 -61 -134 -30 -221 -38 -561 -55 -300 -15 -453 -27 -1275 -101 -502
-45 -521 -48 -737 -135 -243 -97 -421 -162 -550 -200 -135 -39 -252 -93 -320
-147 -82 -65 -204 -142 -225 -142 -20 0 -20 0 -1 30 20 32 245 235 341 308
119 91 135 112 206 286 74 178 124 263 251 421 134 166 265 384 304 503 31 96
50 244 61 488 5 122 12 228 15 235 2 8 18 131 34 274 17 143 37 283 45 310 9
28 42 113 75 190 33 76 58 141 55 144 -13 14 -73 -68 -119 -164 -93 -194 -163
-418 -190 -608 -15 -105 -31 -167 -44 -167 -10 0 -38 64 -50 115 -22 94 -35
242 -36 415 0 176 1 187 24 230 38 72 78 128 176 245 173 205 261 285 467 422
249 165 309 195 430 217 76 14 110 26 156 54 32 21 96 60 141 87 45 28 153 96
239 153 86 57 234 141 327 188 94 46 228 115 300 154 225 120 411 163 567 131
83 -18 108 -41 108 -101 0 -45 3 -51 32 -66 42 -22 128 -14 233 21 113 38 250
45 331 17 32 -11 80 -23 106 -26 48 -7 366 7 558 24 511 47 530 49 602 75 40
15 132 46 205 70 131 44 382 162 536 253 81 48 128 93 209 199 62 82 140 143
181 143 18 0 70 -14 117 -30z m-3515 -4710 c431 -20 673 -62 1011 -175 267
-89 371 -131 486 -196 216 -123 371 -274 456 -445 l30 -60 -8 -320 c-12 -413
-28 -525 -100 -679 -63 -136 -94 -155 -126 -78 -21 50 -30 33 -43 -87 -13
-116 -52 -255 -94 -334 -42 -80 -145 -196 -243 -275 -146 -118 -232 -160 -433
-215 l-116 -31 -440 0 c-416 0 -447 1 -570 23 -311 55 -524 122 -765 239 -152
74 -155 76 -260 181 -118 119 -184 212 -236 332 -85 195 -114 452 -61 534 13
20 42 33 135 62 123 39 275 100 401 164 71 35 84 38 196 45 114 6 236 23 317
43 30 8 47 5 95 -15 174 -73 228 -83 499 -90 318 -8 446 10 503 71 45 47 107
33 198 -46 71 -61 111 -75 323 -108 253 -39 260 -39 361 12 122 61 163 107
231 258 31 69 59 142 63 161 6 34 5 37 -22 42 -35 7 -43 2 -43 -28 0 -44 -20
-77 -83 -138 -44 -43 -88 -72 -154 -104 l-92 -44 -109 55 c-184 92 -496 213
-597 232 -121 22 -800 32 -1029 15 -338 -25 -786 -137 -1009 -253 -68 -36 -81
-47 -101 -87 -12 -25 -43 -76 -68 -112 -42 -62 -46 -73 -53 -148 -4 -45 -11
-83 -15 -86 -18 -11 -25 122 -25 450 0 332 1 343 27 465 43 198 74 297 130
410 98 200 204 271 493 331 55 12 145 24 200 29 148 11 512 11 740 0z m5540
-514 c285 -29 403 -46 576 -82 323 -67 528 -137 661 -224 89 -58 135 -110 177
-200 54 -115 66 -190 66 -425 -1 -183 -4 -230 -28 -367 -122 -696 -322 -1057
-731 -1323 -152 -99 -330 -166 -531 -201 -211 -37 -720 -28 -985 17 -150 25
-394 88 -499 129 -192 74 -400 250 -528 446 -69 107 -107 198 -142 342 -101
414 -101 413 -101 543 0 172 59 551 111 719 68 216 195 369 383 460 189 91
356 134 656 170 138 16 214 19 460 15 169 -2 363 -10 455 -19z m-8550 -96 c0
-19 -52 -45 -230 -116 -222 -88 -253 -99 -261 -91 -21 20 144 142 249 185 103
41 242 54 242 22z"/>
<path d="M12315 14595 c-44 -8 -142 -24 -217 -35 -225 -32 -395 -85 -573 -180
-61 -32 -142 -70 -180 -85 -292 -109 -348 -153 -375 -295 -15 -81 14 -250 43
-250 6 0 94 42 196 93 396 198 551 237 1046 267 367 22 804 40 1127 46 l338 7
0 33 c0 48 35 69 98 60 26 -4 115 -16 198 -26 83 -11 183 -31 222 -44 40 -14
72 -21 72 -17 0 5 -36 45 -79 89 -78 79 -83 82 -168 107 -48 15 -142 44 -208
65 -66 22 -172 51 -235 64 -63 14 -131 30 -150 36 -19 6 -177 18 -350 25 -173
8 -352 21 -397 29 -126 23 -313 28 -408 11z"/>
<path d="M8996 12575 c-26 -7 -110 -43 -185 -79 -75 -36 -181 -84 -236 -107
l-100 -42 -255 -8 c-471 -16 -639 -32 -732 -72 -41 -17 -46 -28 -24 -46 14
-12 534 -91 644 -99 79 -5 206 30 342 93 107 49 192 85 295 123 39 14 95 42
125 61 67 44 202 170 194 182 -6 11 -6 11 -68 -6z"/>
<path d="M12240 13253 c-199 -20 -391 -63 -480 -108 -30 -15 -82 -47 -116 -71
-34 -24 -92 -57 -130 -74 -126 -56 -137 -64 -145 -93 -11 -41 -4 -51 54 -78
47 -22 63 -24 185 -22 200 2 339 32 436 93 26 17 51 30 57 30 6 0 49 -20 97
-44 96 -49 140 -59 353 -81 248 -25 314 -20 441 36 78 34 83 34 212 -23 112
-49 282 -91 497 -123 91 -13 249 -45 350 -70 208 -53 227 -53 343 -5 78 33
127 73 110 90 -13 13 -138 40 -189 40 -58 0 -110 17 -168 54 -129 83 -437 213
-647 275 -171 50 -706 152 -899 171 -97 9 -282 11 -361 3z"/>
<path d="M11435 12460 c-17 -27 134 -223 232 -301 223 -176 394 -263 715 -364
175 -54 384 -83 668 -92 291 -9 373 9 672 147 183 85 258 126 258 141 0 5 -11
14 -25 19 -34 13 -140 -2 -345 -50 -217 -51 -473 -90 -591 -90 -68 0 -119 7
-184 24 -49 13 -146 36 -215 50 -69 15 -156 36 -195 47 -128 38 -529 242 -745
379 -58 37 -119 75 -137 84 -35 18 -98 22 -108 6z"/>
<path d="M3295 12644 c-71 -36 -133 -133 -174 -270 -62 -210 -45 -349 57 -467
23 -27 49 -61 57 -77 23 -44 18 -138 -17 -378 -50 -349 -42 -491 53 -859 63
-245 84 -370 103 -611 9 -107 18 -198 21 -202 3 -5 12 -77 20 -160 9 -84 20
-161 26 -171 9 -18 39 -27 39 -11 2 34 30 215 34 219 9 9 42 -24 99 -97 89
-114 135 -158 163 -152 13 2 24 10 24 17 0 7 -18 50 -39 96 -22 46 -51 130
-65 187 -60 237 -86 298 -194 471 -113 180 -166 376 -183 683 -12 216 0 525
26 683 9 50 29 182 45 295 56 378 90 534 121 551 39 21 81 -23 165 -173 31
-56 72 -118 92 -140 34 -38 149 -114 158 -105 2 2 -22 34 -56 71 -69 76 -96
127 -171 320 -46 119 -62 147 -107 197 -29 32 -72 67 -96 78 -52 26 -156 28
-201 5z"/>
<path d="M4075 11418 c-10 -29 -33 -83 -51 -119 -57 -114 -73 -177 -84 -331
-6 -79 -10 -258 -8 -398 l3 -255 71 -160 c39 -88 77 -178 85 -200 17 -52 27
-64 40 -45 6 9 8 191 7 480 l-3 465 33 162 34 163 -16 80 c-23 111 -57 204
-78 208 -12 2 -21 -11 -33 -50z"/>
<path d="M8965 11222 c-49 -33 -139 -88 -199 -123 -181 -107 -290 -222 -570
-603 -158 -214 -284 -437 -439 -771 -41 -88 -114 -223 -161 -300 -144 -231
-214 -386 -326 -715 -65 -190 -100 -309 -100 -336 0 -50 18 -131 60 -269 18
-62 34 -144 41 -215 6 -63 12 -116 14 -118 6 -6 44 104 64 185 11 43 27 144
35 225 19 178 30 213 156 483 54 116 117 255 140 310 131 310 403 744 504 806
43 26 64 24 122 -13 89 -57 137 -76 320 -127 213 -60 267 -68 559 -76 279 -7
405 -20 475 -49 30 -12 104 -52 163 -90 60 -37 147 -88 195 -113 l87 -46 135
7 c161 7 391 37 550 71 63 13 174 32 245 41 127 17 133 16 261 -5 139 -22 254
-26 422 -12 87 8 114 14 180 46 163 77 251 143 309 233 18 28 37 52 41 52 4 0
15 -12 24 -27 9 -16 69 -89 133 -163 114 -131 120 -141 215 -335 87 -179 208
-453 254 -575 34 -93 76 -116 76 -41 0 58 -88 598 -106 655 -9 28 -36 93 -61
145 -59 128 -71 173 -65 251 4 65 3 68 -59 189 -35 68 -103 180 -151 249 -48
70 -148 219 -224 332 -198 297 -303 398 -517 501 -97 46 -149 55 -155 26 -5
-25 31 -61 158 -162 196 -155 354 -340 412 -483 22 -54 23 -70 23 -287 0 -212
-2 -233 -20 -264 -40 -68 -62 -76 -204 -76 l-128 0 -149 72 c-82 40 -176 79
-209 88 -137 35 -281 11 -475 -79 -162 -75 -294 -115 -408 -123 -92 -6 -93 -6
-122 22 -16 15 -32 40 -35 55 -3 16 -15 36 -26 46 -18 16 -33 16 -243 4 -123
-7 -245 -10 -272 -6 -63 8 -126 38 -262 125 -141 90 -181 107 -281 121 -98 13
-154 5 -391 -57 -208 -54 -319 -73 -420 -72 -113 0 -139 13 -175 83 -29 57
-30 65 -29 180 1 95 7 142 27 217 73 276 187 438 443 630 73 55 144 113 158
129 47 57 106 210 80 210 -5 0 -49 -26 -99 -58z"/>
<path d="M4299 9334 c-20 -25 -24 -167 -6 -253 9 -42 21 -138 27 -215 11 -131
55 -347 95 -466 8 -25 26 -83 39 -130 24 -87 101 -294 137 -365 l20 -40 -5 40
c-11 82 -17 165 -26 355 -10 204 -20 256 -65 354 -40 86 -83 234 -105 366 -53
310 -62 350 -80 360 -13 7 -21 5 -31 -6z"/>
<path d="M8050 8035 c-25 -8 -71 -21 -104 -30 -33 -9 -68 -27 -81 -41 -23 -25
-60 -125 -53 -145 11 -32 156 -51 518 -68 200 -10 373 -34 474 -66 27 -8 64
-15 81 -15 18 0 61 -9 95 -20 35 -11 138 -29 229 -40 241 -30 368 -53 526 -95
140 -38 493 -63 676 -47 244 21 589 74 719 112 173 50 669 103 965 104 199 1
212 0 252 -21 27 -15 52 -39 69 -69 l27 -46 -27 -117 c-15 -64 -26 -133 -24
-154 3 -38 3 -39 81 -64 43 -14 80 -24 83 -21 2 3 9 33 14 66 18 111 59 231
145 423 47 104 85 196 85 204 0 27 -13 46 -40 60 -31 16 -223 40 -315 39 -151
0 -493 -39 -745 -85 -30 -5 -93 -14 -140 -19 -47 -6 -128 -19 -180 -29 -52
-11 -223 -29 -380 -41 -157 -11 -355 -29 -440 -40 -85 -11 -229 -24 -320 -30
-162 -10 -169 -9 -470 30 -168 22 -399 48 -515 60 -208 19 -384 46 -500 76
-33 9 -96 24 -140 34 -44 10 -150 36 -235 58 -187 48 -268 57 -330 37z"/>
<path d="M14290 7716 c-14 -8 -42 -43 -63 -78 -21 -35 -56 -92 -78 -128 -74
-122 -107 -196 -175 -385 -64 -183 -67 -194 -68 -290 -2 -113 -21 -164 -96
-265 -22 -30 -45 -72 -51 -94 -13 -48 -3 -156 16 -182 12 -18 15 -17 49 7 49
35 169 203 219 308 l41 85 1 145 c1 138 3 154 43 304 43 160 66 217 130 317
55 87 113 213 110 240 -4 30 -40 37 -78 16z"/>
<path d="M11587 7290 c-59 -27 -138 -67 -175 -89 -85 -51 -269 -128 -347 -146
-77 -18 -267 -42 -420 -54 -66 -6 -158 -15 -205 -21 -102 -13 -624 -7 -756 9
-102 12 -194 38 -304 86 -158 68 -199 81 -242 76 -80 -11 -76 -69 9 -135 124
-98 222 -167 276 -195 107 -56 280 -97 490 -117 87 -8 191 -21 231 -30 142
-31 269 -44 376 -38 231 12 493 51 565 84 24 11 51 20 59 20 9 0 67 16 128 36
163 53 229 101 406 294 126 138 162 187 162 224 0 33 -26 46 -92 46 -42 -1
-76 -12 -161 -50z"/>
<path d="M13624 6418 c-34 -39 -51 -71 -134 -257 -113 -256 -168 -361 -279
-540 -140 -223 -253 -397 -303 -464 -86 -116 -100 -142 -83 -145 9 -2 52 18
96 45 78 46 102 71 212 212 16 20 42 65 60 101 42 88 125 218 146 230 10 5 32
36 50 70 18 33 65 104 104 158 112 151 136 193 152 268 17 82 31 280 21 318
-8 32 -17 33 -42 4z"/>
<path d="M12871 6095 c-58 -88 -71 -126 -71 -210 0 -94 -43 -172 -219 -395
-106 -135 -354 -379 -445 -439 -41 -27 -167 -88 -279 -135 -195 -83 -209 -91
-322 -181 -141 -112 -212 -144 -500 -228 -224 -65 -211 -63 -485 -82 -118 -8
-282 -26 -365 -41 -100 -17 -205 -27 -315 -31 l-165 -5 -207 51 c-137 34 -235
65 -290 91 -91 42 -312 121 -423 150 -98 25 -443 158 -545 210 -47 23 -110 59
-140 78 -30 20 -89 56 -131 82 -99 62 -301 222 -419 335 -112 107 -127 118
-273 200 -114 65 -126 67 -127 20 0 -31 62 -154 107 -211 42 -52 280 -264 393
-349 36 -27 102 -80 148 -118 98 -82 152 -115 373 -232 91 -48 208 -118 260
-156 52 -38 126 -87 164 -110 39 -23 126 -77 195 -120 176 -109 222 -126 430
-159 41 -6 161 -40 265 -75 314 -105 549 -155 714 -155 95 1 117 4 241 33 36
9 121 28 190 42 325 69 655 205 918 378 103 67 316 185 521 286 139 69 153 78
268 172 46 37 110 82 143 100 49 26 69 45 104 98 50 76 151 277 190 377 14 38
58 134 97 214 62 128 71 154 80 230 5 47 17 119 25 161 16 73 16 77 -6 127
-36 84 -42 84 -99 -3z"/>
</g>
</svg>
